<svg xmlns="http://www.w3.org/2000/svg" viewBox="0 0 24 24" fill="currentColor">
  <path d="M23.954 4.569c-.885.39-1.833.654-2.828.774a4.932 4.932 0 002.163-2.723c-.951.555-2.005.96-3.127 1.184a4.918 4.918 0 00-8.384 4.482c-4.083-.195-7.699-2.158-10.126-5.13a4.822 4.822 0 00-.665 2.475c0 1.71.869 3.213 2.188 4.096a4.93 4.93 0 01-2.228-.616v.062c0 2.385 1.693 4.374 3.946 4.83a4.934 4.934 0 01-2.224.084 4.928 4.928 0 004.602 3.419 9.867 9.867 0 01-6.102 2.105c-.398 0-.79-.023-1.175-.068a13.93 13.93 0 007.557 2.212c9.056 0 14.009-7.496 14.009-13.986 0-.21-.004-.422-.015-.631a10.005 10.005 0 002.459-2.548l-.047-.02z"/>
</svg>
